<svg width="139" height="13" viewBox="0 0 139 13" fill="none" xmlns="http://www.w3.org/2000/svg">
<path d="M8.43229 10.7212H3.6103L2.80487 12.8125H0L4.96682 0.307098H7.1111L12.0956 12.8125H9.22005L8.43229 10.7212ZM7.5562 8.45324L6.04072 4.45082L4.48638 8.45324H7.5562Z" fill="white"/>
<path d="M18.1117 0.307068V10.2654H23.8451V12.8018H15.4693V0.307068H18.1117Z" fill="white"/>
<path d="M35.5628 0.307068V2.847H30.5571V5.09725H35.0259V7.63365H30.5571V10.2654H35.5769V12.8018H27.9006V0.307068H35.5628Z" fill="white"/>
<path d="M47.0473 12.8124L44.2212 8.03991H42.8647V12.8124H40.2224V0.307076H45.0408C46.0727 0.305005 47.0643 0.707996 47.8022 1.42938C48.5401 2.15077 48.9654 3.13294 48.9867 4.16466C48.9867 5.77199 48.2201 7.02252 46.9872 7.63013L50.2584 12.8124H47.0473ZM42.8683 5.74726H44.7794C44.9754 5.75695 45.1713 5.72671 45.3552 5.65838C45.5392 5.59006 45.7073 5.48507 45.8494 5.34979C45.9916 5.2145 46.1047 5.05175 46.1821 4.87141C46.2594 4.69106 46.2993 4.49689 46.2993 4.30066C46.2993 4.10444 46.2594 3.91027 46.1821 3.72992C46.1047 3.54958 45.9916 3.38682 45.8494 3.25154C45.7073 3.11626 45.5392 3.01127 45.3552 2.94294C45.1713 2.87462 44.9754 2.84438 44.7794 2.85407H42.8683V5.74726Z" fill="white"/>
<path d="M62.5339 2.847H58.8742V12.8124H56.2283V2.847H52.5862V0.307068H62.5339V2.847Z" fill="white"/>
<path d="M73.0185 0.307068V10.2654H78.7519V12.8018H70.3726V0.307068H73.0185Z" fill="white"/>
<path d="M94.1892 6.5588C94.2099 7.40667 94.0586 8.24994 93.7444 9.0377C93.4301 9.82547 92.9596 10.5414 92.361 11.1423C91.7625 11.7431 91.0483 12.2165 90.2618 12.5337C89.4752 12.851 88.6326 13.0055 87.7846 12.9881C84.1425 12.9881 81.426 10.2186 81.426 6.5588C81.426 2.89904 84.1602 0.125962 87.7846 0.125962C88.6329 0.108509 89.4758 0.263188 90.2626 0.580653C91.0494 0.898117 91.7637 1.37178 92.3623 1.97303C92.9609 2.57427 93.4314 3.29062 93.7454 4.0788C94.0594 4.86699 94.2104 5.71064 94.1892 6.5588ZM84.1319 6.5588C84.1319 8.75607 85.7039 10.4164 87.7917 10.4164C89.8794 10.4164 91.455 8.75607 91.455 6.5588C91.455 4.36153 89.883 2.70122 87.7846 2.70122C85.6863 2.70122 84.1319 4.36153 84.1319 6.5588Z" fill="#FE6116"/>
<path d="M109.803 6.96991C109.803 10.5625 107.284 12.9753 103.692 12.9753C100.099 12.9753 97.3332 10.2058 97.3332 6.546C97.3332 2.88624 100.067 0.113159 103.713 0.113159C106.249 0.113159 108.694 1.45554 109.319 3.36667L106.801 4.49003C106.355 3.402 105.105 2.68841 103.713 2.68841C101.622 2.68841 100.05 4.34873 100.05 6.546C100.031 7.05764 100.118 7.56766 100.305 8.04419C100.492 8.52072 100.776 8.95352 101.138 9.31555C101.5 9.67758 101.933 9.96105 102.409 10.1483C102.886 10.3355 103.396 10.4224 103.907 10.4036C105.783 10.4036 106.928 9.2237 107.016 7.90251H103.515V5.7547H109.733C109.781 6.1579 109.805 6.56376 109.803 6.96991Z" fill="white"/>
<path d="M116.321 0.307098V12.8125H113.678V0.307098H116.321Z" fill="white"/>
<path d="M126.502 12.9893C122.913 12.9893 120.196 10.1632 120.196 6.56C120.196 2.95677 122.913 0.127167 126.502 0.127167C129.038 0.127167 131.236 1.46955 131.843 3.38068L129.487 4.50404C129.021 3.416 127.915 2.70242 126.502 2.70242C124.382 2.70242 122.913 4.34507 122.913 6.56C122.913 8.77494 124.375 10.4176 126.502 10.4176C128.003 10.4176 129.166 9.63335 129.558 8.40048L131.985 9.50618C131.381 11.5621 129.116 12.9893 126.502 12.9893Z" fill="white"/>
<path d="M137.329 2.91083L136.912 2.20431H136.711V2.91083H136.319V1.05975H137.025C137.178 1.05973 137.325 1.11968 137.434 1.22671C137.543 1.33374 137.605 1.47929 137.608 1.63203C137.613 1.73643 137.588 1.84001 137.536 1.93071C137.484 2.0214 137.407 2.09546 137.315 2.14426L137.799 2.91083H137.329ZM136.711 1.85105H136.993C137.024 1.85497 137.055 1.85236 137.084 1.84341C137.113 1.83446 137.14 1.81937 137.163 1.79915C137.186 1.77892 137.205 1.75403 137.217 1.72613C137.23 1.69823 137.236 1.66796 137.236 1.63733C137.236 1.60671 137.23 1.57644 137.217 1.54853C137.205 1.52063 137.186 1.49574 137.163 1.47552C137.14 1.45529 137.113 1.4402 137.084 1.43125C137.055 1.4223 137.024 1.4197 136.993 1.42361H136.711V1.85105Z" fill="white"/>
<path d="M136.986 4.03421C136.587 4.03491 136.197 3.91711 135.864 3.69574C135.532 3.47437 135.273 3.15937 135.12 2.79065C134.967 2.42193 134.927 2.01606 135.004 1.62446C135.082 1.23285 135.274 0.873109 135.557 0.590799C135.839 0.308489 136.199 0.116305 136.59 0.0385868C136.982 -0.039131 137.388 0.00111315 137.756 0.154221C138.125 0.307329 138.44 0.566413 138.662 0.898666C138.883 1.23092 139.001 1.62139 139 2.02064C139 2.55467 138.788 3.06683 138.41 3.44445C138.033 3.82207 137.52 4.03421 136.986 4.03421ZM136.986 0.438039C136.673 0.438039 136.367 0.530857 136.107 0.704755C135.847 0.878653 135.644 1.12582 135.524 1.415C135.405 1.70419 135.373 2.02239 135.434 2.32939C135.495 2.63638 135.646 2.91837 135.867 3.1397C136.089 3.36103 136.371 3.51176 136.678 3.57283C136.985 3.63389 137.303 3.60255 137.592 3.48277C137.881 3.36298 138.128 3.16014 138.302 2.89988C138.476 2.63963 138.569 2.33365 138.569 2.02064C138.568 1.60119 138.401 1.19919 138.104 0.902602C137.808 0.606009 137.406 0.438972 136.986 0.438039Z" fill="white"/>
</svg>
